<svg width="23" height="23" viewBox="0 0 23 23" fill="none" xmlns="http://www.w3.org/2000/svg">
<g clip-path="url(#clip0_66_2)">
<path d="M19.9802 22.883L14.5777 17.4393C13.097 18.4155 11.3273 18.988 9.41772 18.988C4.21085 18.988 0 14.7356 0 9.48904C0 4.25242 4.21036 0 9.41772 0C14.6157 0 18.8345 4.25242 18.8345 9.48904C18.8345 11.3205 18.3226 13.0271 17.4373 14.4728L22.8783 19.9543C23.1663 20.2366 22.9248 20.9405 22.3467 21.5215L21.5365 22.3399C20.9584 22.9209 20.2598 23.1643 19.9802 22.883ZM15.7051 9.48904C15.7051 5.98784 12.8914 3.15322 9.41723 3.15322C5.94252 3.15322 3.12047 5.98784 3.12047 9.48904C3.12047 12.9902 5.94252 15.8338 9.41723 15.8338C12.8914 15.8338 15.7051 12.9907 15.7051 9.48904Z" fill="#4F46E5"/>
</g>
<defs>
<clipPath id="clip0_66_2">
<rect width="23" height="23" fill="white"/>
</clipPath>
</defs>
</svg>
