<svg width="78" height="78" viewBox="0 0 78 78" fill="none" xmlns="http://www.w3.org/2000/svg">
<path d="M39 0C31.2865 0 23.7463 2.28731 17.3328 6.57269C10.9193 10.8581 5.92053 16.949 2.96872 24.0753C0.0168979 31.2017 -0.755432 39.0433 0.749392 46.6085C2.25422 54.1738 5.96861 61.1229 11.4229 66.5772C16.8771 72.0314 23.8262 75.7458 31.3915 77.2506C38.9568 78.7554 46.7984 77.9831 53.9247 75.0313C61.051 72.0795 67.142 67.0808 71.4273 60.6672C75.7127 54.2537 78 46.7135 78 39C77.9868 28.6606 73.8736 18.7485 66.5626 11.4374C59.2515 4.1264 49.3394 0.0132302 39 0ZM51.73 42H42V51.73C42 52.5256 41.6839 53.2887 41.1213 53.8513C40.5587 54.4139 39.7957 54.73 39 54.73C38.2044 54.73 37.4413 54.4139 36.8787 53.8513C36.3161 53.2887 36 52.5256 36 51.73V42H26.27C25.4744 42 24.7113 41.6839 24.1487 41.1213C23.5861 40.5587 23.27 39.7956 23.27 39C23.27 38.2044 23.5861 37.4413 24.1487 36.8787C24.7113 36.3161 25.4744 36 26.27 36H36V26.27C36 25.4744 36.3161 24.7113 36.8787 24.1487C37.4413 23.5861 38.2044 23.27 39 23.27C39.7957 23.27 40.5587 23.5861 41.1213 24.1487C41.6839 24.7113 42 25.4744 42 26.27V36H51.73C52.124 36 52.5141 36.0776 52.8781 36.2284C53.242 36.3791 53.5728 36.6001 53.8513 36.8787C54.1299 37.1573 54.3509 37.488 54.5017 37.8519C54.6524 38.2159 54.73 38.606 54.73 39C54.73 39.394 54.6524 39.7841 54.5017 40.1481C54.3509 40.512 54.1299 40.8427 53.8513 41.1213C53.5728 41.3999 53.242 41.6209 52.8781 41.7716C52.5141 41.9224 52.124 42 51.73 42Z" fill="#4F46E5"/>
</svg>
