<svg width="14" height="14" viewBox="0 0 14 14" fill="none" xmlns="http://www.w3.org/2000/svg">
<path fill-rule="evenodd" clip-rule="evenodd" d="M1.70711 0.292893C1.31658 -0.0976311 0.683418 -0.0976311 0.292893 0.292893C-0.0976311 0.683418 -0.0976311 1.31658 0.292893 1.70711L5.22321 6.63742L0.292893 11.5677C-0.0976311 11.9583 -0.0976311 12.5914 0.292893 12.9819C0.683418 13.3725 1.31658 13.3725 1.70711 12.9819L6.63742 8.05163L11.6822 13.0964C12.0727 13.4869 12.7059 13.4869 13.0964 13.0964C13.4869 12.7059 13.4869 12.0727 13.0964 11.6822L8.05163 6.63742L12.9819 1.70711C13.3725 1.31658 13.3725 0.683418 12.9819 0.292893C12.5914 -0.0976311 11.9583 -0.0976311 11.5677 0.292893L6.63742 5.22321L1.70711 0.292893Z"/>
</svg>
